<?xml version="1.0" encoding="UTF-8"?>
<svg xmlns="http://www.w3.org/2000/svg" xmlns:xlink="http://www.w3.org/1999/xlink" width="48px" height="48px" viewBox="0 0 48 48" version="1.1">
<g id="surface1">
<path style="fill:none;stroke-width:3;stroke-linecap:round;stroke-linejoin:round;stroke:rgb(95.294118%,52.54902%,18.823529%);stroke-opacity:1;stroke-miterlimit:4;" d="M 27.316477 11.924941 C 27.316138 8.067155 24.184769 4.936056 20.326984 4.936394 L 8.306466 4.9366 C 4.448681 4.936939 1.317581 8.068308 1.317919 11.926093 L 1.318126 23.946611 C 1.315566 27.803846 4.449833 30.935496 8.307618 30.935157 L 20.328136 30.934951 C 24.185372 30.937511 27.317021 27.803244 27.316683 23.945459 Z M 27.316477 11.924941 " transform="matrix(1.301165,-0.246951,0.246951,1.301165,0.941569,4.198273)"/>
<path style="fill:none;stroke-width:3;stroke-linecap:round;stroke-linejoin:round;stroke:rgb(39.607843%,69.019608%,81.960784%);stroke-opacity:1;stroke-miterlimit:4;" d="M 13.030052 16.418576 C 14.671126 16.187251 16.187278 17.328919 16.418602 18.969993 C 16.646981 20.610927 15.505172 22.130025 13.864239 22.358403 C 12.223164 22.589727 10.707012 21.44806 10.475688 19.806985 C 10.244364 18.165911 11.389118 16.646954 13.030052 16.418576 Z M 13.030052 16.418576 " transform="matrix(1.322871,-0.0634609,0.0634609,1.322871,1.81864,3.849427)"/>
<path style="fill:none;stroke-width:3;stroke-linecap:round;stroke-linejoin:round;stroke:rgb(39.607843%,69.019608%,81.960784%);stroke-opacity:1;stroke-miterlimit:4;" d="M 12.19306 10.475661 L 21.105817 9.223049 L 22.35843 18.135806 " transform="matrix(1.322871,-0.0634609,0.0634609,1.322871,1.81864,3.849427)"/>
</g>
</svg>
